<svg width="200" height="28" viewBox="0 0 200 28" fill="none" xmlns="http://www.w3.org/2000/svg">
<path d="M32.4208 8.26C34.4208 8.26 36.0408 8.87 37.2808 10.09C38.5208 11.29 39.1408 13.03 39.1408 15.31V25H36.4408V15.7C36.4408 14.06 36.0308 12.81 35.2108 11.95C34.3908 11.07 33.2708 10.63 31.8508 10.63C30.4108 10.63 29.2608 11.08 28.4008 11.98C27.5608 12.88 27.1408 14.19 27.1408 15.91V25H24.4108V8.56H27.1408V10.9C27.6808 10.06 28.4108 9.41 29.3308 8.95C30.2708 8.49 31.3008 8.26 32.4208 8.26ZM58.9002 16.15C58.9002 16.67 58.8702 17.22 58.8102 17.8H45.6702C45.7702 19.42 46.3202 20.69 47.3202 21.61C48.3402 22.51 49.5702 22.96 51.0102 22.96C52.1902 22.96 53.1702 22.69 53.9502 22.15C54.7502 21.59 55.3102 20.85 55.6302 19.93H58.5702C58.1302 21.51 57.2502 22.8 55.9302 23.8C54.6102 24.78 52.9702 25.27 51.0102 25.27C49.4502 25.27 48.0502 24.92 46.8102 24.22C45.5902 23.52 44.6302 22.53 43.9302 21.25C43.2302 19.95 42.8802 18.45 42.8802 16.75C42.8802 15.05 43.2202 13.56 43.9002 12.28C44.5802 11 45.5302 10.02 46.7502 9.34C47.9902 8.64 49.4102 8.29 51.0102 8.29C52.5702 8.29 53.9502 8.63 55.1502 9.31C56.3502 9.99 57.2702 10.93 57.9102 12.13C58.5702 13.31 58.9002 14.65 58.9002 16.15ZM56.0802 15.58C56.0802 14.54 55.8502 13.65 55.3902 12.91C54.9302 12.15 54.3002 11.58 53.5002 11.2C52.7202 10.8 51.8502 10.6 50.8902 10.6C49.5102 10.6 48.3302 11.04 47.3502 11.92C46.3902 12.8 45.8402 14.02 45.7002 15.58H56.0802ZM84.7038 8.56L79.5738 25H76.7538L72.7938 11.95L68.8338 25H66.0138L60.8538 8.56H63.6438L67.4238 22.36L71.5038 8.56H74.2938L78.2838 22.39L82.0038 8.56H84.7038ZM93.5331 25.27C92.2731 25.27 91.1431 25.06 90.1431 24.64C89.1431 24.2 88.3531 23.6 87.7731 22.84C87.1931 22.06 86.8731 21.17 86.8131 20.17H89.6331C89.7131 20.99 90.0931 21.66 90.7731 22.18C91.4731 22.7 92.3831 22.96 93.5031 22.96C94.5431 22.96 95.3631 22.73 95.9631 22.27C96.5631 21.81 96.8631 21.23 96.8631 20.53C96.8631 19.81 96.5431 19.28 95.9031 18.94C95.2631 18.58 94.2731 18.23 92.9331 17.89C91.7131 17.57 90.7131 17.25 89.9331 16.93C89.1731 16.59 88.5131 16.1 87.9531 15.46C87.4131 14.8 87.1431 13.94 87.1431 12.88C87.1431 12.04 87.3931 11.27 87.8931 10.57C88.3931 9.87 89.1031 9.32 90.0231 8.92C90.9431 8.5 91.9931 8.29 93.1731 8.29C94.9931 8.29 96.4631 8.75 97.5831 9.67C98.7031 10.59 99.3031 11.85 99.3831 13.45H96.6531C96.5931 12.59 96.2431 11.9 95.6031 11.38C94.9831 10.86 94.1431 10.6 93.0831 10.6C92.1031 10.6 91.3231 10.81 90.7431 11.23C90.1631 11.65 89.8731 12.2 89.8731 12.88C89.8731 13.42 90.0431 13.87 90.3831 14.23C90.7431 14.57 91.1831 14.85 91.7031 15.07C92.2431 15.27 92.9831 15.5 93.9231 15.76C95.1031 16.08 96.0631 16.4 96.8031 16.72C97.5431 17.02 98.1731 17.48 98.6931 18.1C99.2331 18.72 99.5131 19.53 99.5331 20.53C99.5331 21.43 99.2831 22.24 98.7831 22.96C98.2831 23.68 97.5731 24.25 96.6531 24.67C95.7531 25.07 94.7131 25.27 93.5331 25.27Z" fill="black"/>
<path d="M117.217 10.6C116.837 9.9 116.287 9.37 115.567 9.01C114.867 8.63 114.037 8.44 113.077 8.44C111.417 8.44 110.087 8.99 109.087 10.09C108.087 11.17 107.587 12.62 107.587 14.44C107.587 16.38 108.107 17.9 109.147 19C110.207 20.08 111.657 20.62 113.497 20.62C114.757 20.62 115.817 20.3 116.677 19.66C117.557 19.02 118.197 18.1 118.597 16.9H112.087V13.12H123.247V17.89C122.867 19.17 122.217 20.36 121.297 21.46C120.397 22.56 119.247 23.45 117.847 24.13C116.447 24.81 114.867 25.15 113.107 25.15C111.027 25.15 109.167 24.7 107.527 23.8C105.907 22.88 104.637 21.61 103.717 19.99C102.817 18.37 102.367 16.52 102.367 14.44C102.367 12.36 102.817 10.51 103.717 8.89C104.637 7.25 105.907 5.98 107.527 5.08C109.147 4.16 110.997 3.7 113.077 3.7C115.597 3.7 117.717 4.31 119.437 5.53C121.177 6.75 122.327 8.44 122.887 10.6H117.217ZM131.519 11.05C132.119 10.13 132.869 9.41 133.769 8.89C134.669 8.35 135.669 8.08 136.769 8.08V13.51H135.359C134.079 13.51 133.119 13.79 132.479 14.35C131.839 14.89 131.519 15.85 131.519 17.23V25H126.389V8.26H131.519V11.05ZM138.501 16.6C138.501 14.88 138.821 13.37 139.461 12.07C140.121 10.77 141.011 9.77 142.131 9.07C143.251 8.37 144.501 8.02 145.881 8.02C147.061 8.02 148.091 8.26 148.971 8.74C149.871 9.22 150.561 9.85 151.041 10.63V8.26H156.171V25H151.041V22.63C150.541 23.41 149.841 24.04 148.941 24.52C148.061 25 147.031 25.24 145.851 25.24C144.491 25.24 143.251 24.89 142.131 24.19C141.011 23.47 140.121 22.46 139.461 21.16C138.821 19.84 138.501 18.32 138.501 16.6ZM151.041 16.63C151.041 15.35 150.681 14.34 149.961 13.6C149.261 12.86 148.401 12.49 147.381 12.49C146.361 12.49 145.491 12.86 144.771 13.6C144.071 14.32 143.721 15.32 143.721 16.6C143.721 17.88 144.071 18.9 144.771 19.66C145.491 20.4 146.361 20.77 147.381 20.77C148.401 20.77 149.261 20.4 149.961 19.66C150.681 18.92 151.041 17.91 151.041 16.63ZM168.582 12.52H165.822V25H160.692V12.52H158.832V8.26H160.692V7.78C160.692 5.72 161.282 4.16 162.462 3.1C163.642 2.02 165.372 1.48 167.652 1.48C168.032 1.48 168.312 1.49 168.492 1.51V5.86C167.512 5.8 166.822 5.94 166.422 6.28C166.022 6.62 165.822 7.23 165.822 8.11V8.26H168.582V12.52ZM173.692 25.24C172.792 25.24 172.052 24.98 171.472 24.46C170.912 23.92 170.632 23.26 170.632 22.48C170.632 21.68 170.912 21.01 171.472 20.47C172.052 19.93 172.792 19.66 173.692 19.66C174.572 19.66 175.292 19.93 175.852 20.47C176.432 21.01 176.722 21.68 176.722 22.48C176.722 23.26 176.432 23.92 175.852 24.46C175.292 24.98 174.572 25.24 173.692 25.24Z" fill="#6869AC"/>
</svg>
