<?xml version="1.0" encoding="utf-8"?>
<!-- Generator: Adobe Illustrator 24.3.0, SVG Export Plug-In . SVG Version: 6.00 Build 0)  -->
<svg version="1.1" id="Layer_1" xmlns="http://www.w3.org/2000/svg" xmlns:xlink="http://www.w3.org/1999/xlink" x="0px" y="0px"
	 viewBox="0 0 1879.71 299.2" style="enable-background:new 0 0 1879.71 299.2;" xml:space="preserve">
<style type="text/css">
	.st0{fill:#6869AB;}
</style>
<g>
	<g>
		<path d="M1100.83,120.89h177.43v177.82h-60.27v-69.43c-3.13,2.91-5.06,4.62-6.9,6.44c-15.01,14.9-29.15,30.84-47.82,41.49
			c-46.59,26.58-94.7,29.7-142.85,5.9c-43.2-21.35-70.04-55.8-79.8-101.42h63.31c18.15,46.05,73.61,71.6,122.6,46.07
			c8.2-4.27,15.69-10.35,22.62-16.59c10.06-8.99,19.31-18.89,30-29.48h-78.31V120.89z"/>
		<path class="st0" d="M1278.46,0v60.75h-26.98c-54.9,0.02-109.8-0.13-164.7,0.11c-38.86,0.18-72.15,25.31-84.18,60.03h-63.34
			c4.63-24.35,15.84-46.85,33.25-67.13c31.21-36.34,71.4-53.8,119.27-53.76c59.24,0.04,118.48,0,177.73,0H1278.46z"/>
	</g>
	<path d="M166.93,140.21c13.28,12.95,19.91,32.49,19.91,58.61V299.2h-61.53v-90.35c0-23.96-9.61-35.94-28.82-35.94
		c-10.58,0-19.05,3.46-25.42,10.36c-6.37,6.91-9.55,17.28-9.55,31.09v84.84H0V120.69h58.61v22.11c6.91-7.12,15.11-12.57,24.61-16.35
		c9.5-3.78,19.86-5.67,31.09-5.67C136.11,120.78,153.66,127.25,166.93,140.21z"/>
	<path d="M405.6,222.83H275.89c2.63,9.22,7.74,16.3,15.31,21.23c7.57,4.94,17.06,7.41,28.48,7.41c8.56,0,15.97-1.2,22.22-3.62
		c6.26-2.41,12.56-6.36,18.93-11.85l32.92,34.24c-17.34,19.31-42.69,28.97-76.05,28.97c-20.85,0-39.18-3.95-54.98-11.85
		c-15.8-7.9-28.04-18.87-36.71-32.92c-8.67-14.04-13-29.96-13-47.73c0-17.56,4.22-33.3,12.68-47.24
		c8.45-13.93,20.13-24.85,35.06-32.76c14.92-7.9,31.71-11.85,50.37-11.85c17.78,0,33.91,3.68,48.39,11.03
		c14.48,7.36,25.95,18,34.4,31.93c8.45,13.94,12.67,30.45,12.67,49.55C406.58,207.8,406.26,212.95,405.6,222.83z M287.25,167.52
		c-6.48,5.49-10.59,12.95-12.35,22.39h73.08c-1.76-9.43-5.87-16.9-12.35-22.39c-6.48-5.48-14.54-8.23-24.2-8.23
		C301.79,159.29,293.72,162.04,287.25,167.52z"/>
	<path d="M733.89,120.78L670.35,299.2h-60.57l-33.58-97.11l-34.9,97.11h-60.57l-63.54-178.43h59.26l36.54,107.98l37.86-107.98h53.33
		l36.87,108.97l37.86-108.97H733.89z"/>
	<path d="M777.76,294.1c-14.48-3.4-26.12-7.84-34.9-13.33l18.77-42.8c8.12,5.05,17.78,9.05,28.97,12.02
		c11.19,2.96,22.27,4.44,33.25,4.44c10.09,0,17.28-1.04,21.56-3.13c4.28-2.08,6.42-5.1,6.42-9.05c0-3.95-2.58-6.75-7.74-8.39
		c-5.16-1.64-13.33-3.23-24.52-4.77c-14.27-1.75-26.39-4.06-36.38-6.91c-9.99-2.85-18.6-8.12-25.84-15.8
		c-7.24-7.68-10.86-18.44-10.86-32.26c0-11.41,3.4-21.56,10.21-30.45c6.8-8.89,16.73-15.91,29.79-21.07
		c13.05-5.15,28.69-7.74,46.91-7.74c12.95,0,25.79,1.32,38.52,3.95c12.73,2.64,23.37,6.37,31.93,11.19l-18.76,42.47
		c-15.8-8.77-32.92-13.17-51.36-13.17c-9.88,0-17.12,1.15-21.73,3.46c-4.61,2.31-6.91,5.32-6.91,9.05c0,4.17,2.52,7.08,7.57,8.72
		c5.05,1.65,13.38,3.35,25.02,5.11c14.7,2.19,26.88,4.72,36.54,7.57c9.65,2.85,18.05,8.06,25.18,15.64
		c7.13,7.57,10.7,18.16,10.7,31.77c0,11.19-3.41,21.23-10.21,30.12c-6.81,8.89-16.85,15.86-30.12,20.91
		c-13.28,5.05-29.25,7.57-47.9,7.57C806.95,299.2,792.25,297.5,777.76,294.1z"/>
	<path d="M1411.32,126.87c10.2-4.06,21.89-6.09,35.06-6.09l0,53.33c-5.71-0.66-10.43-0.99-14.16-0.99
		c-13.39,0-23.87,3.62-31.44,10.86c-7.57,7.24-11.36,18.33-11.36,33.25v81.97h-62.55V120.78h59.58v21.4
		C1392.83,134.06,1401.11,130.93,1411.32,126.87z"/>
	<path d="M1618.6,135.1c15.58,13.5,23.37,34.19,23.37,62.06v99.09h-58.27V273.2c-9,17.34-26.56,26.01-52.67,26.01
		c-13.83,0-25.79-2.42-35.88-7.24c-10.1-4.83-17.73-11.36-22.88-19.59c-5.16-8.23-7.74-17.61-7.74-28.15
		c0-16.9,6.47-30.01,19.42-39.34c12.95-9.32,32.92-13.99,59.91-13.99h35.55c-1.1-18.87-13.72-28.31-37.86-28.31
		c-8.56,0-17.23,1.37-26.01,4.11c-8.78,2.75-16.24,6.54-22.39,11.36l-21.07-42.47c9.88-6.58,21.89-11.68,36.05-15.31
		c14.16-3.62,28.36-5.43,42.63-5.43C1580.42,114.85,1603.02,121.6,1618.6,135.1z M1567.58,254.43c5.48-3.51,9.43-8.67,11.85-15.47
		v-15.47h-26.99c-18.22,0-27.32,6.04-27.32,18.11c0,5.49,2.08,9.87,6.25,13.17c4.17,3.29,9.88,4.94,17.12,4.94
		C1555.72,259.7,1562.09,257.95,1567.58,254.43z"/>
	<path d="M1753.19,121.25h43.98v48.41h-42.27V299.2h-64.77V169.66h-26.93v-48.41h26.93v-4.77c0-22.5,6.76-40.34,20.28-53.52
		c13.52-13.18,32.44-19.77,56.76-19.77c8.18,0,16.13,0.8,23.86,2.39c7.72,1.59,14.09,3.98,19.09,7.16L1794.1,98.4
		c-6.36-3.63-12.84-5.45-19.43-5.45c-6.82,0-12.1,2.04-15.85,6.14c-3.75,4.09-5.63,10.11-5.63,18.07V121.25z"/>
	<path d="M1815.51,288.67c-7.24-7.02-10.86-15.91-10.86-26.67c0-10.97,3.57-19.86,10.7-26.66c7.13-6.8,16.07-10.2,26.83-10.2
		c10.97,0,19.97,3.4,27,10.2c7.02,6.8,10.53,15.69,10.53,26.66c0,10.76-3.57,19.65-10.7,26.67c-7.14,7.03-16.08,10.53-26.83,10.53
		C1831.64,299.2,1822.76,295.7,1815.51,288.67z"/>
</g>
</svg>
