<svg width="206" height="39" viewBox="0 0 206 39" fill="none" xmlns="http://www.w3.org/2000/svg">
<path d="M22.854 10.67V29H17.758V18.886L14.3 29H10.036L6.552 18.808V29H1.456V10.67H7.618L12.22 22.578L16.718 10.67H22.854ZM39.9508 21.538C39.9508 21.9367 39.9248 22.3353 39.8728 22.734H30.2268C30.2788 23.5313 30.4955 24.1293 30.8768 24.528C31.2755 24.9093 31.7782 25.1 32.3848 25.1C33.2342 25.1 33.8408 24.7187 34.2048 23.956H39.6388C39.4135 24.9613 38.9715 25.8627 38.3128 26.66C37.6715 27.44 36.8568 28.0553 35.8688 28.506C34.8808 28.9567 33.7888 29.182 32.5928 29.182C31.1542 29.182 29.8715 28.8787 28.7448 28.272C27.6355 27.6653 26.7602 26.7987 26.1188 25.672C25.4948 24.5453 25.1828 23.2193 25.1828 21.694C25.1828 20.1687 25.4948 18.8513 26.1188 17.742C26.7428 16.6153 27.6095 15.7487 28.7188 15.142C29.8455 14.5353 31.1368 14.232 32.5928 14.232C34.0315 14.232 35.3055 14.5267 36.4148 15.116C37.5242 15.7053 38.3908 16.5547 39.0148 17.664C39.6388 18.756 39.9508 20.0473 39.9508 21.538ZM34.7508 20.264C34.7508 19.64 34.5428 19.1547 34.1268 18.808C33.7108 18.444 33.1908 18.262 32.5668 18.262C31.9428 18.262 31.4315 18.4353 31.0328 18.782C30.6342 19.1113 30.3742 19.6053 30.2528 20.264H34.7508ZM51.8383 14.284C53.5196 14.284 54.8543 14.8473 55.8423 15.974C56.8303 17.0833 57.3243 18.5913 57.3243 20.498V29H52.2283V21.174C52.2283 20.342 52.0116 19.692 51.5783 19.224C51.145 18.7387 50.5643 18.496 49.8363 18.496C49.0736 18.496 48.4756 18.7387 48.0423 19.224C47.609 19.692 47.3923 20.342 47.3923 21.174V29H42.2963V14.414H47.3923V16.494C47.843 15.8353 48.4496 15.3067 49.2123 14.908C49.975 14.492 50.8503 14.284 51.8383 14.284ZM59.5485 21.694C59.5485 20.186 59.8172 18.8687 60.3545 17.742C60.9092 16.6153 61.6632 15.7487 62.6165 15.142C63.5699 14.5353 64.6272 14.232 65.7885 14.232C66.7245 14.232 67.5565 14.4313 68.2845 14.83C69.0299 15.2113 69.6105 15.74 70.0265 16.416V9.76H75.1485V29H70.0265V26.972C69.6279 27.648 69.0645 28.1853 68.3365 28.584C67.6085 28.9827 66.7505 29.182 65.7625 29.182C64.6012 29.182 63.5439 28.8787 62.5905 28.272C61.6545 27.6653 60.9092 26.7987 60.3545 25.672C59.8172 24.528 59.5485 23.202 59.5485 21.694ZM70.0525 21.694C70.0525 20.758 69.7925 20.0213 69.2725 19.484C68.7699 18.9467 68.1459 18.678 67.4005 18.678C66.6379 18.678 66.0052 18.9467 65.5025 19.484C64.9999 20.004 64.7485 20.7407 64.7485 21.694C64.7485 22.63 64.9999 23.3753 65.5025 23.93C66.0052 24.4673 66.6379 24.736 67.4005 24.736C68.1459 24.736 68.7699 24.4673 69.2725 23.93C69.7925 23.3927 70.0525 22.6473 70.0525 21.694ZM96.6944 11.06V29H94.8744V14.674L88.4784 29H87.1524L80.7564 14.726V29H78.9364V11.06H80.8604L87.8024 26.608L94.7444 11.06H96.6944ZM100.251 21.876C100.251 20.42 100.537 19.146 101.109 18.054C101.698 16.9447 102.504 16.0953 103.527 15.506C104.567 14.8993 105.737 14.596 107.037 14.596C108.389 14.596 109.55 14.908 110.521 15.532C111.509 16.156 112.22 16.9533 112.653 17.924V14.804H114.473V29H112.653V25.854C112.202 26.8247 111.483 27.6307 110.495 28.272C109.524 28.896 108.363 29.208 107.011 29.208C105.728 29.208 104.567 28.9047 103.527 28.298C102.504 27.6913 101.698 26.8333 101.109 25.724C100.537 24.6147 100.251 23.332 100.251 21.876ZM112.653 21.902C112.653 20.758 112.419 19.7527 111.951 18.886C111.483 18.0193 110.842 17.352 110.027 16.884C109.23 16.416 108.346 16.182 107.375 16.182C106.37 16.182 105.468 16.4073 104.671 16.858C103.874 17.3087 103.241 17.9673 102.773 18.834C102.322 19.6833 102.097 20.6973 102.097 21.876C102.097 23.0373 102.322 24.06 102.773 24.944C103.241 25.8107 103.874 26.478 104.671 26.946C105.468 27.3967 106.37 27.622 107.375 27.622C108.346 27.622 109.23 27.388 110.027 26.92C110.842 26.452 111.483 25.7847 111.951 24.918C112.419 24.0513 112.653 23.046 112.653 21.902ZM120.708 17.326C121.107 16.442 121.713 15.7573 122.528 15.272C123.36 14.7867 124.374 14.544 125.57 14.544V16.442H125.076C123.759 16.442 122.701 16.7973 121.904 17.508C121.107 18.2187 120.708 19.406 120.708 21.07V29H118.888V14.804H120.708V17.326ZM130.934 16.338V25.152C130.934 26.0187 131.099 26.6167 131.428 26.946C131.757 27.2753 132.338 27.44 133.17 27.44H134.834V29H132.884C131.601 29 130.648 28.7053 130.024 28.116C129.4 27.5093 129.088 26.5213 129.088 25.152V16.338H127.112V14.804H129.088V11.242H130.934V14.804H134.834V16.338H130.934ZM150.94 21.174C150.94 21.798 150.922 22.2747 150.888 22.604H139.11C139.162 23.6787 139.422 24.5973 139.89 25.36C140.358 26.1227 140.973 26.7033 141.736 27.102C142.498 27.4833 143.33 27.674 144.232 27.674C145.41 27.674 146.398 27.388 147.196 26.816C148.01 26.244 148.548 25.4727 148.808 24.502H150.732C150.385 25.8887 149.64 27.024 148.496 27.908C147.369 28.7747 145.948 29.208 144.232 29.208C142.897 29.208 141.701 28.9133 140.644 28.324C139.586 27.7173 138.754 26.868 138.148 25.776C137.558 24.6667 137.264 23.3753 137.264 21.902C137.264 20.4287 137.558 19.1373 138.148 18.028C138.737 16.9187 139.56 16.0693 140.618 15.48C141.675 14.8907 142.88 14.596 144.232 14.596C145.584 14.596 146.762 14.8907 147.768 15.48C148.79 16.0693 149.57 16.8667 150.108 17.872C150.662 18.86 150.94 19.9607 150.94 21.174ZM149.094 21.122C149.111 20.0647 148.894 19.1633 148.444 18.418C148.01 17.6727 147.412 17.1093 146.65 16.728C145.887 16.3467 145.055 16.156 144.154 16.156C142.802 16.156 141.649 16.5893 140.696 17.456C139.742 18.3227 139.214 19.5447 139.11 21.122H149.094ZM153.697 21.902C153.697 20.4287 153.992 19.146 154.581 18.054C155.171 16.9447 155.985 16.0953 157.025 15.506C158.065 14.8993 159.253 14.596 160.587 14.596C162.338 14.596 163.777 15.0293 164.903 15.896C166.047 16.7627 166.784 17.9413 167.113 19.432H165.163C164.921 18.4093 164.392 17.612 163.577 17.04C162.78 16.4507 161.783 16.156 160.587 16.156C159.634 16.156 158.776 16.3727 158.013 16.806C157.251 17.2393 156.644 17.8893 156.193 18.756C155.76 19.6053 155.543 20.654 155.543 21.902C155.543 23.15 155.76 24.2073 156.193 25.074C156.644 25.9407 157.251 26.5907 158.013 27.024C158.776 27.4573 159.634 27.674 160.587 27.674C161.783 27.674 162.78 27.388 163.577 26.816C164.392 26.2267 164.921 25.412 165.163 24.372H167.113C166.784 25.828 166.047 26.998 164.903 27.882C163.759 28.766 162.321 29.208 160.587 29.208C159.253 29.208 158.065 28.9133 157.025 28.324C155.985 27.7173 155.171 26.868 154.581 25.776C153.992 24.6667 153.697 23.3753 153.697 21.902ZM177.495 14.544C178.569 14.544 179.531 14.7693 180.381 15.22C181.247 15.6707 181.923 16.364 182.409 17.3C182.911 18.2187 183.163 19.3453 183.163 20.68V29H181.369V20.888C181.369 19.3453 180.979 18.1667 180.199 17.352C179.436 16.5373 178.387 16.13 177.053 16.13C175.683 16.13 174.591 16.5633 173.777 17.43C172.962 18.2967 172.555 19.5707 172.555 21.252V29H170.735V9.76H172.555V17.222C173.005 16.3727 173.664 15.714 174.531 15.246C175.415 14.778 176.403 14.544 177.495 14.544Z" fill="black"/>
<path d="M190.88 28.98L192.44 24.49H193.65L191.55 30H190.19L188.1 24.49H189.32L190.88 28.98ZM194.872 30.07C194.665 30.07 194.492 30 194.352 29.86C194.212 29.72 194.142 29.5467 194.142 29.34C194.142 29.1333 194.212 28.96 194.352 28.82C194.492 28.68 194.665 28.61 194.872 28.61C195.072 28.61 195.242 28.68 195.382 28.82C195.522 28.96 195.592 29.1333 195.592 29.34C195.592 29.5467 195.522 29.72 195.382 29.86C195.242 30 195.072 30.07 194.872 30.07ZM196.574 26.26C196.574 25.1067 196.767 24.2067 197.154 23.56C197.547 22.9067 198.22 22.58 199.174 22.58C200.127 22.58 200.797 22.9067 201.184 23.56C201.577 24.2067 201.774 25.1067 201.774 26.26C201.774 27.4267 201.577 28.34 201.184 29C200.797 29.6533 200.127 29.98 199.174 29.98C198.22 29.98 197.547 29.6533 197.154 29C196.767 28.34 196.574 27.4267 196.574 26.26ZM200.654 26.26C200.654 25.72 200.617 25.2633 200.544 24.89C200.477 24.5167 200.337 24.2133 200.124 23.98C199.91 23.74 199.594 23.62 199.174 23.62C198.754 23.62 198.437 23.74 198.224 23.98C198.01 24.2133 197.867 24.5167 197.794 24.89C197.727 25.2633 197.694 25.72 197.694 26.26C197.694 26.82 197.727 27.29 197.794 27.67C197.86 28.05 198 28.3567 198.214 28.59C198.434 28.8233 198.754 28.94 199.174 28.94C199.594 28.94 199.91 28.8233 200.124 28.59C200.344 28.3567 200.487 28.05 200.554 27.67C200.62 27.29 200.654 26.82 200.654 26.26ZM202.73 23.75V22.71H204.81V30H203.66V23.75H202.73Z" fill="#838383"/>
</svg>
