<svg width="162" height="27" viewBox="0 0 162 27" fill="none" xmlns="http://www.w3.org/2000/svg">
<path d="M8.51888 8.208C10.6095 8.208 12.3162 8.85867 13.6389 10.16C14.9615 11.44 15.6229 13.3067 15.6229 15.76V26H13.4149V16.016C13.4149 14.1173 12.9349 12.6667 11.9749 11.664C11.0362 10.6613 9.74554 10.16 8.10288 10.16C6.41754 10.16 5.07354 10.6933 4.07088 11.76C3.06821 12.8267 2.56688 14.3947 2.56688 16.464V26H0.326876V8.528H2.56688V11.504C3.12154 10.4373 3.92154 9.62667 4.96688 9.072C6.01221 8.496 7.19621 8.208 8.51888 8.208ZM36.7049 16.368C36.7049 17.136 36.6835 17.7227 36.6409 18.128H22.1449C22.2089 19.4507 22.5289 20.5813 23.1049 21.52C23.6809 22.4587 24.4382 23.1733 25.3769 23.664C26.3155 24.1333 27.3395 24.368 28.4489 24.368C29.8995 24.368 31.1155 24.016 32.0969 23.312C33.0995 22.608 33.7609 21.6587 34.0809 20.464H36.4489C36.0222 22.1707 35.1049 23.568 33.6969 24.656C32.3102 25.7227 30.5609 26.256 28.4489 26.256C26.8062 26.256 25.3342 25.8933 24.0329 25.168C22.7315 24.4213 21.7075 23.376 20.9609 22.032C20.2355 20.6667 19.8729 19.0773 19.8729 17.264C19.8729 15.4507 20.2355 13.8613 20.9609 12.496C21.6862 11.1307 22.6995 10.0853 24.0009 9.36C25.3022 8.63467 26.7849 8.272 28.4489 8.272C30.1129 8.272 31.5635 8.63467 32.8009 9.36C34.0595 10.0853 35.0195 11.0667 35.6809 12.304C36.3635 13.52 36.7049 14.8747 36.7049 16.368ZM34.4329 16.304C34.4542 15.0027 34.1875 13.8933 33.6329 12.976C33.0995 12.0587 32.3635 11.3653 31.4249 10.896C30.4862 10.4267 29.4622 10.192 28.3529 10.192C26.6889 10.192 25.2702 10.7253 24.0969 11.792C22.9235 12.8587 22.2729 14.3627 22.1449 16.304H34.4329ZM64.1631 8.528L58.6911 26H56.4511L51.6191 11.344L46.7871 26H44.5151L39.0431 8.528H41.3151L45.6671 23.728L50.5631 8.528H52.8031L57.6351 23.76L61.9551 8.528H64.1631ZM73.5529 26.256C71.5475 26.256 69.9049 25.7973 68.6249 24.88C67.3662 23.9413 66.6622 22.672 66.5129 21.072H68.8169C68.9235 22.0533 69.3822 22.8533 70.1929 23.472C71.0249 24.0693 72.1342 24.368 73.5209 24.368C74.7369 24.368 75.6862 24.08 76.3689 23.504C77.0729 22.928 77.4249 22.2133 77.4249 21.36C77.4249 20.7627 77.2329 20.272 76.8489 19.888C76.4649 19.504 75.9742 19.2053 75.3769 18.992C74.8009 18.7573 74.0115 18.512 73.0089 18.256C71.7075 17.9147 70.6515 17.5733 69.8409 17.232C69.0302 16.8907 68.3369 16.3893 67.7609 15.728C67.2062 15.0453 66.9289 14.1387 66.9289 13.008C66.9289 12.1547 67.1849 11.3653 67.6969 10.64C68.2089 9.91467 68.9342 9.33867 69.8729 8.912C70.8115 8.48533 71.8782 8.272 73.0729 8.272C74.9502 8.272 76.4649 8.752 77.6169 9.712C78.7689 10.6507 79.3875 11.952 79.4729 13.616H77.2329C77.1689 12.592 76.7635 11.7707 76.0169 11.152C75.2915 10.512 74.2889 10.192 73.0089 10.192C71.8782 10.192 70.9609 10.4587 70.2569 10.992C69.5529 11.5253 69.2009 12.1867 69.2009 12.976C69.2009 13.6587 69.4035 14.224 69.8089 14.672C70.2355 15.0987 70.7582 15.44 71.3769 15.696C71.9955 15.9307 72.8275 16.1973 73.8729 16.496C75.1315 16.8373 76.1342 17.168 76.8809 17.488C77.6275 17.808 78.2675 18.2773 78.8009 18.896C79.3342 19.5147 79.6115 20.336 79.6329 21.36C79.6329 22.2987 79.3769 23.1413 78.8649 23.888C78.3529 24.6133 77.6382 25.1893 76.7209 25.616C75.8035 26.0427 74.7475 26.256 73.5529 26.256ZM98.5054 10.64C98.1 9.89333 97.5134 9.328 96.7454 8.944C95.9987 8.53867 95.1134 8.336 94.0894 8.336C92.3187 8.336 90.9 8.92267 89.8334 10.096C88.7667 11.248 88.2334 12.7947 88.2334 14.736C88.2334 16.8053 88.788 18.4267 89.8974 19.6C91.028 20.752 92.5747 21.328 94.5374 21.328C95.8814 21.328 97.012 20.9867 97.9294 20.304C98.868 19.6213 99.5507 18.64 99.9774 17.36H93.0334V13.328H104.937V18.416C104.532 19.7813 103.839 21.0507 102.857 22.224C101.897 23.3973 100.671 24.3467 99.1774 25.072C97.684 25.7973 95.9987 26.16 94.1214 26.16C91.9027 26.16 89.9187 25.68 88.1694 24.72C86.4414 23.7387 85.0867 22.384 84.1054 20.656C83.1454 18.928 82.6654 16.9547 82.6654 14.736C82.6654 12.5173 83.1454 10.544 84.1054 8.816C85.0867 7.06667 86.4414 5.712 88.1694 4.752C89.8974 3.77067 91.8707 3.28 94.0894 3.28C96.7774 3.28 99.0387 3.93067 100.873 5.232C102.729 6.53333 103.956 8.336 104.553 10.64H98.5054ZM113.76 11.12C114.4 10.1387 115.2 9.37067 116.16 8.816C117.12 8.24 118.187 7.952 119.36 7.952V13.744H117.856C116.491 13.744 115.467 14.0427 114.784 14.64C114.102 15.216 113.76 16.24 113.76 17.712V26H108.288V8.144H113.76V11.12ZM121.208 17.04C121.208 15.2053 121.549 13.5947 122.232 12.208C122.936 10.8213 123.885 9.75467 125.08 9.008C126.275 8.26133 127.608 7.888 129.08 7.888C130.339 7.888 131.437 8.144 132.376 8.656C133.336 9.168 134.072 9.84 134.584 10.672V8.144H140.056V26H134.584V23.472C134.051 24.304 133.304 24.976 132.344 25.488C131.405 26 130.307 26.256 129.048 26.256C127.597 26.256 126.275 25.8827 125.08 25.136C123.885 24.368 122.936 23.2907 122.232 21.904C121.549 20.496 121.208 18.8747 121.208 17.04ZM134.584 17.072C134.584 15.7067 134.2 14.6293 133.432 13.84C132.685 13.0507 131.768 12.656 130.68 12.656C129.592 12.656 128.664 13.0507 127.896 13.84C127.149 14.608 126.776 15.6747 126.776 17.04C126.776 18.4053 127.149 19.4933 127.896 20.304C128.664 21.0933 129.592 21.488 130.68 21.488C131.768 21.488 132.685 21.0933 133.432 20.304C134.2 19.5147 134.584 18.4373 134.584 17.072ZM153.295 12.688H150.351V26H144.879V12.688H142.895V8.144H144.879V7.632C144.879 5.43467 145.508 3.77067 146.767 2.64C148.025 1.488 149.871 0.911999 152.303 0.911999C152.708 0.911999 153.007 0.922665 153.199 0.943998V5.584C152.153 5.52 151.417 5.66933 150.991 6.032C150.564 6.39467 150.351 7.04533 150.351 7.984V8.144H153.295V12.688ZM158.746 26.256C157.786 26.256 156.997 25.9787 156.378 25.424C155.781 24.848 155.482 24.144 155.482 23.312C155.482 22.4587 155.781 21.744 156.378 21.168C156.997 20.592 157.786 20.304 158.746 20.304C159.685 20.304 160.453 20.592 161.05 21.168C161.669 21.744 161.978 22.4587 161.978 23.312C161.978 24.144 161.669 24.848 161.05 25.424C160.453 25.9787 159.685 26.256 158.746 26.256Z" fill="black"/>
</svg>
