<?xml version="1.0" encoding="utf-8"?>
<!-- Generator: Adobe Illustrator 24.3.0, SVG Export Plug-In . SVG Version: 6.00 Build 0)  -->
<svg version="1.1" id="Layer_1" xmlns="http://www.w3.org/2000/svg" xmlns:xlink="http://www.w3.org/1999/xlink" x="0px" y="0px"
	 viewBox="0 0 381.08 245.72" style="enable-background:new 0 0 381.08 245.72;" xml:space="preserve">
<style type="text/css">
	.st0{fill:#6869AB;}
</style>
<g>
	<g>
		<path d="M132.69,99.28h145.71v146.03h-49.5v-57.02c-2.57,2.39-4.15,3.79-5.66,5.29c-12.33,12.23-23.94,25.33-39.27,34.08
			c-38.26,21.83-77.77,24.39-117.32,4.85c-35.48-17.54-57.52-45.83-65.54-83.29h51.99c14.91,37.82,60.45,58.8,100.69,37.84
			c6.74-3.5,12.88-8.5,18.58-13.62c8.26-7.39,15.86-15.51,24.64-24.21h-64.32V99.28z"/>
		<path class="st0" d="M278.57,0v49.89h-22.16c-45.09,0.02-90.17-0.11-135.26,0.09c-31.92,0.15-59.26,20.78-69.13,49.3H0
			c3.81-20,13-38.47,27.31-55.13C52.94,14.3,85.94-0.03,125.26,0c48.65,0.03,97.3,0,145.96,0H278.57z"/>
	</g>
	<path d="M323.49,236.27c-6.5-6.3-9.75-14.28-9.75-23.93c0-9.84,3.2-17.82,9.6-23.92c6.4-6.1,14.42-9.16,24.07-9.16
		c9.84,0,17.92,3.05,24.22,9.16c6.3,6.1,9.45,14.08,9.45,23.92c0,9.65-3.2,17.63-9.6,23.93c-6.4,6.3-14.43,9.45-24.07,9.45
		C337.96,245.72,329.98,242.57,323.49,236.27z"/>
</g>
</svg>
