<svg width="152" height="138" viewBox="0 0 152 138" fill="none" xmlns="http://www.w3.org/2000/svg">
<path d="M79.3146 3.99574C66.2418 5.19952 44.3327 24.8507 28.3673 30.609C-12.5872 45.3802 64.5005 100.837 108.019 99.5605C128.844 98.9496 145.351 96.8687 142.291 91.6156C134.686 78.558 150.247 44.1804 145.498 33.3337C140.749 22.4871 109.076 45.5251 100.506 38.8923C91.9373 32.2596 92.3874 2.79195 79.3146 3.99574Z" fill="#8C52FF"/>
<path d="M71.8605 23.7044C58.7877 24.9082 36.8786 44.5594 20.9132 50.3177C-20.0413 65.0889 57.0464 120.546 100.565 119.269C121.39 118.658 137.897 116.577 134.837 111.324C127.232 98.2667 142.793 63.8891 138.044 53.0424C133.295 42.1957 101.621 65.2338 93.0523 58.601C84.4832 51.9683 84.9333 22.5006 71.8605 23.7044Z" fill="#A375FF"/>
<path d="M62.6408 36.7285C49.568 37.9322 27.6589 57.5834 11.6935 63.3417C-29.261 78.113 47.8267 133.57 91.3448 132.293C112.17 131.682 128.677 129.601 125.617 124.348C118.012 111.291 133.573 76.9131 128.824 66.0664C124.076 55.2198 92.4017 78.2578 83.8326 71.6251C75.2635 64.9923 75.7135 35.5247 62.6408 36.7285Z" fill="#B38DFF"/>
</svg>
